<svg width="130" height="24" xmlns="http://www.w3.org/2000/svg">

 <g>
  <title>Layer 1</title>
  <text font-weight="bold" xml:space="preserve" text-anchor="start" font-family="sans-serif" font-size="24" id="svg_4" y="20.32823" x="32.75086" opacity="undefined" stroke-opacity="null" stroke-dasharray="null" stroke-width="0" stroke="#000" fill="#CC7C65">d</text>
  <text font-weight="bold" xml:space="preserve" text-anchor="start" font-family="sans-serif" font-size="24" id="svg_5" y="20.33079" x="46.7446" opacity="undefined" stroke-opacity="null" stroke-dasharray="null" stroke-width="0" stroke="#000" fill="#E6C36A">i</text>
  <text font-weight="bold" xml:space="preserve" text-anchor="start" font-family="sans-serif" font-size="24" id="svg_6" y="20.32999" x="52.89986" opacity="undefined" stroke-opacity="null" stroke-dasharray="null" stroke-width="0" stroke="#000" fill="#A98E49">c</text>
  <text font-weight="bold" xml:space="preserve" text-anchor="start" font-family="sans-serif" font-size="24" id="svg_7" y="20.32823" x="62.69235" opacity="undefined" stroke-opacity="null" stroke-dasharray="null" stroke-width="0" stroke="#000" fill="#6D97AB">T</text>
  <text font-weight="bold" xml:space="preserve" text-anchor="start" font-family="sans-serif" font-size="24" id="svg_8" y="20.32648" x="93.46887" opacity="undefined" fill-opacity="null" stroke-opacity="null" stroke-dasharray="null" stroke-width="0" stroke="#000" fill="#E6C36A">i</text>
  <text font-weight="bold" xml:space="preserve" text-anchor="start" font-family="sans-serif" font-size="24" id="svg_10" y="20.31794" x="113.77864" opacity="undefined" stroke-opacity="null" stroke-dasharray="null" stroke-width="0" stroke="#000" fill="#CC7C65">n</text>
  <text font-weight="bold" xml:space="preserve" text-anchor="start" font-family="sans-serif" font-size="16" id="svg_11" y="20.34687" x="73.84191" opacity="undefined" stroke-opacity="null" stroke-dasharray="null" stroke-width="0" stroke="#000" fill="#CE7975">&amp;</text>
  <text font-weight="bold" xml:space="preserve" text-anchor="start" font-family="sans-serif" font-size="24" id="svg_12" y="20.32823" x="85.14863" opacity="undefined" stroke-opacity="null" stroke-dasharray="null" stroke-width="0" stroke="#000" fill="#6D97AB">t</text>
  <path stroke="#000" stroke-width="0" transform="rotate(-90 9.97638511657715,11.045454978942871) " id="svg_13" d="m17.33071,18.5505c0,0.23103 -0.20631,0.41821 -0.46097,0.41821l-2.95191,0c-0.25465,0 -0.46097,-0.18718 -0.46097,-0.41821l0,-5.68974c0,-0.23102 0.20631,-0.41821 0.46097,-0.41821l2.95191,0c0.25465,0 0.46097,0.18719 0.46097,0.41821l0,5.68974zm-10.92877,0c0,0.23103 -0.20635,0.41821 -0.46097,0.41821l-2.95195,0c-0.25461,0 -0.46097,-0.18718 -0.46097,-0.41821l0,-5.68974c0,-0.23102 0.20635,-0.41821 0.46097,-0.41821l2.95195,0c0.25461,0 0.46097,0.18719 0.46097,0.41821l0,5.68974zm3.5663,-15.42831c-5.34162,0 -9.67778,3.89839 -9.74438,8.72978l1.69111,0c0.05484,-3.99319 3.63879,-7.2151 8.05326,-7.2151c4.41447,0 7.99843,3.22191 8.05262,7.2151l1.69107,0c-0.06591,-4.83139 -4.40335,-8.72978 -9.7437,-8.72978l0,0zm-9.73067,13.15537l1.66043,0l0,-4.43449l-1.66043,0l0,4.43449zm17.76958,-4.43509l0,4.43451l1.72176,0l0,-4.43451l-1.72176,0z" opacity="undefined" stroke-opacity="null" stroke-dasharray="2,2" fill="#884D58"/>
  <text font-weight="bold" xml:space="preserve" text-anchor="start" font-family="sans-serif" font-size="24" id="svg_18" y="20.33109" x="18.39125" opacity="undefined" fill-opacity="null" stroke-opacity="null" stroke-dasharray="null" stroke-width="0" stroke="#000" fill="#884D58">o</text>
  <text font-weight="bold" xml:space="preserve" text-anchor="start" font-family="sans-serif" font-size="24" id="svg_19" y="20.33001" x="99.79937" opacity="undefined" stroke-opacity="null" stroke-dasharray="null" stroke-width="0" stroke="#000" fill="#A98E49">o</text>
 </g>
</svg>